<svg xmlns="http://www.w3.org/2000/svg" width="75.286" height="48.921" viewBox="0 0 75.286 48.921">
  <path id="accusoft-brands" d="M37.9,71.988V71.87l-6.022-7.739a5.586,5.586,0,0,0-2.941,1.776C27.878,67,.461,94.03.308,94.242c-.823,1.176.188.8,1.847.2.094,0,13.468-4.3,13.468-4.3.059-.071-.012-.012.071-.071-.047-.6-.094-3.082-.118-3.258-.071-.612.259-.812.823-1.047L27.29,81.786c.071-.094,10.409-9.61,10.609-9.8ZM56.731,86.114c1.564,1.894,2.435,1.564,3.623,1.094.376-.141,13.573-5.6,13.856-5.752.941-.506-.2-1.964-.847-2.752C73.115,78.41,49.238,49.816,48.991,49.5c-1.141-1.435-1.682-1.517-4.517-1.506-1.2,0-12.562.059-13.7.071-2.258.012-3.87-.035-2.258,1.988C29.419,51.169,56.06,85.3,56.731,86.114Zm17.961.188c-.271-.035-2.893-.553-4.47-.847,0,0-13.526,5.928-13.82,6.069-1.882.859-3.164-.376-4.317-1.717l-6.716-8.7c-.635-.106-7.1-1.129-7.681-1.094a5.515,5.515,0,0,0-1.694.341c-.576.247-17.079,6.21-17.667,6.434s-1.341.423-1.306.894c.024.294.235.306.541.412s35.392,7.951,36.227,8.128c1.835.388,4.528,1.235,6.3.2.247-.141,14.561-8.986,14.8-9.151C75.526,86.8,75.4,86.467,74.691,86.3Z" transform="translate(-0.016 -47.992)"/>
</svg>
